<?xml version="1.0" encoding="iso-8859-1"?>
<!-- Generator: Adobe Illustrator 16.0.0, SVG Export Plug-In . SVG Version: 6.00 Build 0)  -->
<!DOCTYPE svg PUBLIC "-//W3C//DTD SVG 1.1//EN" "http://www.w3.org/Graphics/SVG/1.1/DTD/svg11.dtd">
<svg xmlns="http://www.w3.org/2000/svg" xmlns:xlink="http://www.w3.org/1999/xlink" version="1.1" id="Capa_1" x="0px" y="0px" width="512px" height="512px" viewBox="0 0 322.186 322.186" style="enable-background:new 0 0 322.186 322.186;" xml:space="preserve">
<g>
	<g>
		<path d="M68.257,221.332v18.863h113.856c-1.351-5.675-2.136-11.56-2.136-17.64c0-0.417,0.053-0.817,0.062-1.229H68.257V221.332z" fill="#f9ba48"/>
		<path d="M320.346,103.692H302.99v58.276c6.761,5.2,12.651,11.459,17.355,18.595V103.692z" fill="#f9ba48"/>
		<path d="M68.257,198.577h-2.7h-2.7h-17.35v17.354h17.35h2.7h2.7H180.31c0.517-6.012,1.74-11.817,3.575-17.354H68.257z" fill="#f9ba48"/>
		<path d="M297.591,103.692v-2.7v-2.7V79.428h-17.35v18.863v2.7v2.7v46.195c6.175,2.024,11.981,4.828,17.35,8.269V103.692z" fill="#f9ba48"/>
		<path d="M68.257,175.827h-2.7h-2.7h-17.35h-2.7h-2.7H22.75v17.35h17.352h2.7h2.7h17.35h2.7h2.7h117.606    c2.615-6.254,6.08-12.055,10.178-17.35H68.257z" fill="#f9ba48"/>
		<path d="M274.841,103.692v-2.7v-2.7V79.428v-2.7v-2.7v-17.35h-17.35v17.35v2.7v2.7v18.863v2.7v2.7v42.422    c5.98,0.082,11.775,0.892,17.35,2.273V103.692z" fill="#f9ba48"/>
		<path d="M252.092,146.28v-42.588v-2.7v-2.7V79.428v-2.7v-2.7v-17.35v-2.7v-2.7v-17.35H0v136.498h17.35h2.7h2.7h17.352h2.7h2.7    h17.35h2.7h2.7h132.392C213.68,156.481,231.82,147.438,252.092,146.28z M17.35,59.524c0.783-1.279,1.674-2.479,2.7-3.562    c0.686-0.725,1.447-1.363,2.225-1.982c1.324-1.055,2.742-1.978,4.292-2.7c2.745-1.276,5.77-2.041,8.991-2.041    c3.225,0,6.249,0.765,8.991,2.041c1.551,0.723,2.972,1.646,4.293,2.7c1.021,0.814,1.961,1.711,2.818,2.7    c3.262,3.752,5.303,8.596,5.303,13.958c0,1.16-0.161,2.278-0.34,3.391c-0.15,0.928-0.377,1.813-0.641,2.7    c-0.277,0.923-0.556,1.835-0.947,2.7c-1.959,4.338-5.339,7.842-9.529,10.057c-0.87,0.464-1.761,0.873-2.7,1.213    c-0.88,0.319-1.767,0.638-2.7,0.839c-1.469,0.316-2.982,0.506-4.543,0.506c-4.828,0-9.229-1.656-12.809-4.351    c-0.96-0.725-1.872-1.503-2.7-2.378c-1.025-1.084-1.917-2.284-2.7-3.562c-1.986-3.246-3.19-7.027-3.19-11.114    S15.369,62.77,17.35,59.524z M190.92,156.853H68.257h-2.7h-2.7h-17.35h-2.7h-2.7H22.75h-2.7h-2.7h-3.19v-18.354h3.19h2.7h2.7    h17.352h2.7h2.7h17.35h2.7h2.7H190.92V156.853L190.92,156.853z M190.92,124.928H68.257h-2.7h-2.7h-17.35h-2.7h-2.7H22.75h-2.7    h-2.7h-3.19v-18.354h3.19h2.7h2.7h17.352h2.7h2.7h17.35h2.7h2.7H190.92V124.928L190.92,124.928z" fill="#f9ba48"/>
		<path d="M320.346,207.399c-2.843-12.008-8.923-22.775-17.355-31.224c-0.854-0.865-1.793-1.656-2.699-2.468    c-0.881-0.802-1.767-1.599-2.7-2.342c-5.189-4.177-11.032-7.547-17.35-10.004c-0.886-0.343-1.782-0.68-2.7-0.986    c-0.896-0.306-1.782-0.596-2.7-0.864c-5.516-1.604-11.332-2.511-17.35-2.603c-0.337-0.005-0.675-0.056-1.018-0.056    c-0.564,0-1.118,0.071-1.683,0.087c-0.906,0.021-1.803,0.077-2.699,0.135c-13.311,0.881-25.519,5.706-35.49,13.353    c-1.14,0.864-2.241,1.761-3.312,2.7c-1.012,0.875-2.02,1.761-2.969,2.699c-5.089,5.021-9.308,10.896-12.551,17.35    c-0.448,0.887-0.891,1.783-1.303,2.7c-0.39,0.886-0.759,1.793-1.117,2.7c-2.152,5.469-3.634,11.274-4.24,17.35    c-0.09,0.886-0.084,1.804-0.137,2.7s-0.116,1.793-0.138,2.7c-0.005,0.411-0.058,0.812-0.058,1.229    c0,6.122,0.901,12.018,2.463,17.64c0.253,0.907,0.49,1.813,0.78,2.7c0.295,0.906,0.653,1.803,0.991,2.699    c9.345,24.901,33.297,42.662,61.467,42.662c28.166,0,52.123-17.761,61.468-42.662c0.337-0.896,0.69-1.782,0.991-2.699    c0.29-0.896,0.527-1.804,0.78-2.7c0.227-0.817,0.438-1.646,0.639-2.479c1.154-4.873,1.829-9.936,1.829-15.161    C322.186,217.329,321.5,212.277,320.346,207.399z M220.557,245.827c-1.098,0-2.142-0.084-3.144-0.232    c-2.558-0.39-4.757-1.318-6.655-2.699c-0.253-0.18-0.527-0.327-0.759-0.522c-0.775-0.638-1.43-1.387-2.004-2.178    c-1.487-2.046-2.368-4.567-2.595-7.604h8.822c0.354,1.93,1.018,3.412,2.015,4.461c0.997,1.039,2.441,1.572,4.34,1.572    c2.188,0,3.86-0.775,5.01-2.32c1.14-1.54,1.72-3.48,1.72-5.822c0-2.299-0.544-4.24-1.614-5.822    c-1.075-1.582-2.747-2.378-5.021-2.378c-1.075,0-2.004,0.132-2.795,0.406c-1.381,0.495-2.426,1.418-3.132,2.763l-7.932-0.369    l0.475-3.749l0.343-2.7l0.343-2.7l1.993-15.735h24.785v7.515h-18.394l-1.35,8.221l-0.264,1.63c1.224-0.791,2.162-1.313,2.9-1.63    c0.095-0.036,0.222-0.116,0.295-0.142c1.287-0.475,2.848-0.713,4.683-0.713c1.751,0,3.386,0.301,4.937,0.86    c1.624,0.591,3.143,1.487,4.535,2.7c0.09,0.073,0.189,0.126,0.274,0.2c0.801,0.732,1.455,1.582,2.024,2.499    c1.397,2.247,2.131,5.036,2.131,8.433c0,3.865-1.202,7.335-3.502,10.426c-0.179,0.242-0.306,0.495-0.495,0.728    c-0.617,0.754-1.318,1.397-2.078,1.982c-1.903,1.461-4.287,2.337-7.088,2.7C222.46,245.71,221.548,245.827,220.557,245.827z     M256.627,245.763c-0.633,0-1.171-0.121-1.767-0.169c-3.054-0.253-5.559-1.149-7.494-2.699c-0.938-0.76-1.771-1.646-2.446-2.7    c-0.111-0.169-0.254-0.285-0.359-0.464c-2.31-4.019-3.459-9.74-3.459-17.176c0-0.433,0.042-0.807,0.048-1.224    c0.016-0.934,0.053-1.83,0.11-2.7c0.063-0.934,0.147-1.83,0.253-2.7c0.507-4.276,1.492-7.852,3.048-10.583    c2.311-4.035,6.328-6.055,12.066-6.055c5.737,0,9.761,2.02,12.065,6.055c1.561,2.731,2.552,6.307,3.059,10.583    c0.105,0.87,0.189,1.767,0.248,2.7c0.053,0.87,0.089,1.767,0.11,2.7c0.011,0.417,0.053,0.791,0.053,1.224    c0,7.436-1.16,13.157-3.47,17.176c-0.101,0.179-0.248,0.295-0.358,0.464c-0.676,1.055-1.503,1.945-2.442,2.7    c-1.94,1.55-4.445,2.446-7.493,2.699C257.803,245.647,257.27,245.763,256.627,245.763z M301.271,242.895    c-1.94,1.561-4.44,2.446-7.488,2.699c-0.596,0.053-1.139,0.169-1.771,0.169c-0.639,0-1.182-0.116-1.772-0.169    c-3.048-0.253-5.558-1.139-7.499-2.699c-0.938-0.755-1.761-1.641-2.441-2.7c-0.11-0.164-0.258-0.274-0.358-0.454    c-2.305-4.018-3.459-9.745-3.459-17.181c0-0.433,0.042-0.802,0.047-1.224c0.016-0.928,0.053-1.824,0.116-2.699    c0.058-0.939,0.143-1.836,0.242-2.7c0.512-4.277,1.498-7.853,3.054-10.579c2.315-4.039,6.333-6.059,12.071-6.059    c2.119,0,3.934,0.374,5.59,0.923c0.98,0.327,1.882,0.743,2.699,1.266c1.034,0.664,1.931,1.492,2.7,2.468    c0.358,0.464,0.775,0.865,1.076,1.393c2.314,4.039,3.47,9.776,3.47,17.212s-1.155,13.163-3.47,17.181    c-0.101,0.169-0.243,0.29-0.354,0.454C303.038,241.254,302.21,242.14,301.271,242.895z" fill="#f9ba48"/>
		<path d="M262.944,218.631c-0.042-0.965-0.116-1.851-0.19-2.7c-0.205-2.198-0.517-4.028-0.949-5.426    c-0.817-2.605-2.541-3.913-5.178-3.913c-2.627,0-4.367,1.303-5.211,3.913c-0.453,1.397-0.78,3.228-0.991,5.426    c-0.084,0.85-0.147,1.735-0.195,2.7c-0.036,0.839-0.047,1.767-0.062,2.7c-0.006,0.417-0.026,0.786-0.026,1.224    c0,5.178,0.422,9.139,1.275,11.881c0.844,2.742,2.584,4.113,5.211,4.113c2.637,0,4.355-1.371,5.178-4.113    c0.812-2.742,1.229-6.703,1.229-11.881c0-0.438-0.021-0.807-0.026-1.224C262.991,220.398,262.981,219.47,262.944,218.631z" fill="#f9ba48"/>
		<path d="M298.318,218.631c-0.116-2.568-0.369-4.678-0.728-6.402c-0.132-0.605-0.264-1.213-0.417-1.713    c-0.817-2.611-2.547-3.919-5.173-3.919c-2.632,0-4.366,1.303-5.221,3.919c-0.454,1.392-0.775,3.222-0.981,5.421    c-0.084,0.844-0.158,1.729-0.2,2.7c-0.037,0.833-0.047,1.771-0.063,2.699c-0.005,0.422-0.026,0.786-0.026,1.224    c0,5.179,0.428,9.139,1.271,11.881c0.854,2.742,2.589,4.113,5.221,4.113c2.626,0,4.351-1.371,5.173-4.113    c0.817-2.742,1.229-6.702,1.229-11.881c0-0.438-0.021-0.812-0.026-1.224C298.371,220.398,298.36,219.47,298.318,218.631z" fill="#f9ba48"/>
	</g>
</g>
<g>
</g>
<g>
</g>
<g>
</g>
<g>
</g>
<g>
</g>
<g>
</g>
<g>
</g>
<g>
</g>
<g>
</g>
<g>
</g>
<g>
</g>
<g>
</g>
<g>
</g>
<g>
</g>
<g>
</g>
</svg>
